<svg width="137" height="57" viewBox="0 0 137 57" fill="none" xmlns="http://www.w3.org/2000/svg">
<path d="M8.48512 35.96C5.84512 35.96 3.90112 35.348 2.65312 34.124C1.40512 32.924 0.781123 31.556 0.781123 30.02C0.781123 28.868 1.16512 27.812 1.93312 26.852C2.70112 25.868 3.68512 25.376 4.88512 25.376C6.10912 25.376 7.10512 25.748 7.87312 26.492C8.64112 27.236 9.02512 28.1 9.02512 29.084C9.02512 30.068 8.71312 30.896 8.08912 31.568C7.46512 32.24 6.68512 32.576 5.74912 32.576C4.83712 32.576 4.05712 32.3 3.40912 31.748C2.78512 31.172 2.47312 30.392 2.47312 29.408C2.47312 28.304 2.91712 27.536 3.80512 27.104C4.02112 27.008 4.12912 26.888 4.12912 26.744C4.12912 26.504 3.99712 26.384 3.73312 26.384C3.56512 26.384 3.32512 26.504 3.01312 26.744C1.98112 27.56 1.46512 28.652 1.46512 30.02C1.46512 31.388 1.98112 32.516 3.01312 33.404C4.02112 34.316 5.19712 34.772 6.54112 34.772C7.88512 34.772 8.83312 34.304 9.38512 33.368C9.93712 32.432 10.2131 31.064 10.2131 29.264V7.376H7.58512V6.8H20.6171V7.376H17.5931V27.032C17.5931 29.744 16.8611 31.904 15.3971 33.512C13.9331 35.144 11.6291 35.96 8.48512 35.96ZM22.1477 20.228C20.1557 20.228 18.7277 20.852 17.8637 22.1C17.7197 22.316 17.6477 22.496 17.6477 22.64C17.6477 22.856 17.7557 22.964 17.9717 22.964C18.1637 22.964 18.3437 22.784 18.5117 22.424C18.9197 21.848 19.4837 21.56 20.2037 21.56C20.9477 21.56 21.5237 21.8 21.9317 22.28C22.3637 22.76 22.5797 23.384 22.5797 24.152C22.5797 24.92 22.3037 25.556 21.7517 26.06C21.2237 26.564 20.5277 26.816 19.6637 26.816C18.7997 26.816 18.0917 26.504 17.5397 25.88C16.9877 25.256 16.7117 24.452 16.7117 23.468C16.7117 22.484 17.1797 21.584 18.1157 20.768C19.0517 19.952 20.3837 19.544 22.1117 19.544C22.9997 19.544 23.8757 19.676 24.7397 19.94L28.4117 9.356C28.7477 8.348 29.1197 7.652 29.5277 7.268C30.1757 6.692 31.0517 6.404 32.1557 6.404L40.9037 31.1H42.2717V31.676H33.3437L32.5517 29.48C30.5597 24.848 28.0997 21.956 25.1717 20.804L22.9757 27.032C22.7357 27.68 22.6157 28.292 22.6157 28.868C22.6157 30.356 23.6957 31.1 25.8557 31.1H27.0437V31.676H17.8277V31.1C18.5477 31.1 19.1477 31.028 19.6277 30.884C20.1077 30.716 20.5157 30.404 20.8517 29.948C21.1877 29.492 21.4397 29.072 21.6077 28.688C21.7757 28.28 22.0157 27.644 22.3277 26.78L24.4877 20.588C23.6957 20.348 22.9157 20.228 22.1477 20.228ZM25.3877 20.156C27.5477 20.948 29.4077 22.556 30.9677 24.98L27.3317 14.648L25.3877 20.156ZM44.713 29.696C43.681 28.688 43.165 27.56 43.165 26.312C43.165 25.064 43.513 24.08 44.209 23.36C44.905 22.616 45.769 22.244 46.801 22.244C47.833 22.244 48.685 22.58 49.357 23.252C50.053 23.924 50.401 24.716 50.401 25.628C50.401 26.54 50.113 27.344 49.537 28.04C48.985 28.736 48.241 29.084 47.305 29.084C46.393 29.084 45.709 28.76 45.253 28.112C45.229 28.064 45.193 28.004 45.145 27.932C45.097 27.86 45.061 27.8 45.037 27.752C44.965 27.632 44.869 27.572 44.749 27.572C44.509 27.572 44.389 27.68 44.389 27.896C44.389 28.112 44.509 28.376 44.749 28.688C45.421 29.552 46.393 30.248 47.665 30.776C48.961 31.28 50.365 31.532 51.877 31.532C53.413 31.532 54.697 31.22 55.729 30.596C56.785 29.948 57.313 28.988 57.313 27.716C57.313 26.276 56.389 25.064 54.541 24.08C53.725 23.648 52.825 23.228 51.841 22.82C50.857 22.388 49.873 21.92 48.889 21.416C47.905 20.888 47.005 20.312 46.189 19.688C45.373 19.04 44.701 18.212 44.173 17.204C43.669 16.196 43.417 15.056 43.417 13.784C43.417 11.576 44.413 9.752 46.405 8.312C48.397 6.848 50.665 6.116 53.209 6.116C55.753 6.116 57.889 6.584 59.617 7.52C61.345 8.456 62.209 9.74 62.209 11.372C62.209 12.5 61.861 13.472 61.165 14.288C60.493 15.104 59.617 15.512 58.537 15.512C57.457 15.512 56.581 15.188 55.909 14.54C55.237 13.892 54.901 13.088 54.901 12.128C54.901 11.168 55.177 10.376 55.729 9.752C56.281 9.104 57.049 8.78 58.033 8.78C59.017 8.78 59.821 9.284 60.445 10.292C60.565 10.484 60.685 10.58 60.805 10.58C61.045 10.58 61.165 10.448 61.165 10.184C61.165 10.04 61.105 9.872 60.985 9.68C60.577 8.984 59.749 8.336 58.501 7.736C57.277 7.136 55.861 6.836 54.253 6.836C52.645 6.836 51.433 7.16 50.617 7.808C49.801 8.432 49.393 9.272 49.393 10.328C49.393 11.36 49.741 12.272 50.437 13.064C51.133 13.856 51.997 14.492 53.029 14.972C54.085 15.428 55.213 15.944 56.413 16.52C57.637 17.096 58.765 17.672 59.797 18.248C60.853 18.824 61.729 19.628 62.425 20.66C63.121 21.692 63.469 22.892 63.469 24.26C63.469 26.804 62.413 28.796 60.301 30.236C58.213 31.652 55.561 32.36 52.345 32.36C49.153 32.36 46.609 31.472 44.713 29.696ZM68.1898 9.104V24.692C68.1898 26.756 68.2738 28.16 68.4418 28.904C68.6098 29.648 68.8498 30.128 69.1618 30.344C69.7858 30.848 70.8178 31.1 72.2578 31.1H73.1218V31.676H63.0058V31.1H63.4018C64.7938 31.052 65.8258 30.752 66.4978 30.2C67.0018 29.768 67.3138 28.76 67.4338 27.176C67.4578 26.6 67.4698 25.76 67.4698 24.656V9.968C67.4698 8.96 67.2058 8.276 66.6778 7.916C66.1498 7.556 65.3098 7.376 64.1578 7.376V6.8H74.9218L79.7458 18.284L86.4778 6.8H95.6938V7.376H93.3898V31.1H95.6938V31.676H83.9578V31.1H86.2618V9.104H86.0098L80.0698 19.004L82.1218 23.864C82.6738 25.112 82.9498 26.276 82.9498 27.356C82.9498 28.412 82.5418 29.348 81.7258 30.164C80.9098 30.956 79.8178 31.352 78.4498 31.352C75.6178 31.352 74.2018 30.32 74.2018 28.256C74.2018 27.632 74.6218 26.636 75.4618 25.268L68.4418 9.104H68.1898ZM75.7858 26.06C75.1858 27.02 74.8858 27.764 74.8858 28.292C74.8858 28.82 75.0298 29.264 75.3178 29.624C75.6058 29.984 75.8818 30.164 76.1458 30.164C76.4098 30.164 76.6138 30.08 76.7578 29.912C76.9258 29.744 77.0098 29.48 77.0098 29.12C77.0098 28.76 76.8298 28.22 76.4698 27.5L75.8218 26.024L75.7858 26.06ZM100.598 9.968C102.83 9.968 104.582 9.572 105.854 8.78C107.15 7.964 107.798 6.704 107.798 5C107.798 3.848 107.414 2.912 106.646 2.192C105.878 1.448 104.978 1.076 103.946 1.076C102.938 1.076 102.23 1.28 101.822 1.688C101.75 1.76 101.714 1.856 101.714 1.976C101.714 2.192 101.81 2.3 102.002 2.3C102.074 2.3 102.266 2.216 102.578 2.048C102.914 1.88 103.286 1.796 103.694 1.796C104.558 1.796 105.29 2.084 105.89 2.66C106.514 3.236 106.826 4.04 106.826 5.072C106.826 6.08 106.466 6.908 105.746 7.556C105.026 8.18 104.102 8.492 102.974 8.492C101.87 8.492 100.97 8.108 100.274 7.34C99.602 6.572 99.266 5.66 99.266 4.604C99.266 3.548 99.662 2.588 100.454 1.724C101.27 0.835999 102.362 0.391999 103.73 0.391999C105.122 0.391999 106.262 0.823999 107.15 1.688C108.038 2.528 108.482 3.632 108.482 5C108.482 6.368 108.086 7.508 107.294 8.42V31.1H110.39V31.676H97.286V31.1H99.95V10.688C99.206 10.688 98.438 10.616 97.646 10.472V9.788C98.486 9.908 99.47 9.968 100.598 9.968ZM115.163 13.82V27.716C115.163 28.868 114.803 29.876 114.083 30.74C113.387 31.58 112.427 32 111.203 32C110.003 32 109.019 31.628 108.251 30.884C107.459 30.14 107.063 29.276 107.063 28.292C107.063 27.308 107.375 26.48 107.999 25.808C108.623 25.136 109.403 24.8 110.339 24.8C111.251 24.8 112.019 25.088 112.643 25.664C113.291 26.216 113.615 26.96 113.615 27.896C113.615 28.424 113.519 28.88 113.327 29.264C113.159 29.648 112.979 29.9 112.787 30.02C112.499 30.188 112.331 30.296 112.283 30.344C112.091 30.44 111.995 30.548 111.995 30.668C111.995 30.908 112.103 31.028 112.319 31.028C112.415 31.028 112.559 30.98 112.751 30.884C113.879 30.332 114.443 29.3 114.443 27.788V13.676C114.443 12.332 114.191 11.096 113.687 9.968C113.447 9.512 113.135 9.056 112.751 8.6C112.103 7.784 111.383 7.376 110.591 7.376V6.8H117.971C118.955 6.8 119.759 6.968 120.383 7.304C121.031 7.616 121.703 8.324 122.399 9.428L131.507 24.08H131.651V15.224C131.651 11.576 131.339 9.368 130.715 8.6C130.019 7.784 128.975 7.376 127.583 7.376H126.395V6.8H136.871V7.376H136.439C135.071 7.424 134.135 7.784 133.631 8.456C133.343 8.816 133.103 9.188 132.911 9.572C132.743 9.932 132.623 10.46 132.551 11.156C132.431 12.308 132.371 13.676 132.371 15.26V31.676H130.247C129.263 31.676 128.447 31.52 127.799 31.208C127.175 30.872 126.515 30.152 125.819 29.048L115.019 12.056C115.115 12.512 115.163 13.1 115.163 13.82ZM17.4974 45.28H10.6734V49.464H16.6734V50.584H10.6734V56H9.30544V44.16H17.4974V45.28ZM19.5001 56V44.16H20.8681V54.864H27.5081V56H19.5001ZM33.7038 56.152C32.5625 56.152 31.5705 55.9307 30.7278 55.488C29.8905 55.04 29.2398 54.3627 28.7758 53.456C28.3171 52.5493 28.0878 51.424 28.0878 50.08C28.0878 48.736 28.3198 47.6107 28.7838 46.704C29.2531 45.7973 29.9065 45.1227 30.7438 44.68C31.5865 44.232 32.5731 44.008 33.7038 44.008C34.8451 44.008 35.8345 44.232 36.6718 44.68C37.5145 45.1227 38.1651 45.7973 38.6238 46.704C39.0878 47.6107 39.3198 48.736 39.3198 50.08C39.3198 51.4187 39.0851 52.544 38.6158 53.456C38.1518 54.3627 37.4985 55.04 36.6558 55.488C35.8185 55.9307 34.8345 56.152 33.7038 56.152ZM33.7038 55C35.0265 55 36.0585 54.6027 36.7998 53.808C37.5411 53.0133 37.9118 51.784 37.9118 50.12C37.9118 48.424 37.5411 47.1733 36.7998 46.368C36.0585 45.5627 35.0265 45.16 33.7038 45.16C32.3865 45.16 31.3545 45.5573 30.6078 46.352C29.8665 47.1467 29.4958 48.376 29.4958 50.04C29.4958 51.7467 29.8638 53 30.5998 53.8C31.3411 54.6 32.3758 55 33.7038 55ZM57.0773 44.16H58.4133L54.6133 56H52.8373L49.4053 45.512L45.9653 56H44.1893L40.3733 44.16H41.7893L45.1493 54.8L48.6213 44.16H50.2293L53.6853 54.848L57.0773 44.16ZM61.6783 54.896H68.6543V56H60.3183V44.16H68.5743V45.264H61.6783V49.376H67.7583V50.472H61.6783V54.896ZM78.7614 56L74.7694 51.112C74.6468 51.1173 74.4574 51.12 74.2014 51.12C73.6468 51.12 72.9721 51.088 72.1774 51.024V56H70.8254V44.416C72.0468 44.16 73.2388 44.032 74.4014 44.032C75.5481 44.032 76.4894 44.1547 77.2254 44.4C77.9614 44.64 78.5108 45.0187 78.8734 45.536C79.2414 46.0533 79.4254 46.7253 79.4254 47.552C79.4254 48.48 79.1534 49.2293 78.6094 49.8C78.0654 50.3653 77.2601 50.7493 76.1934 50.952L80.3294 56H78.7614ZM72.1774 49.96C72.5774 49.9973 72.9188 50.024 73.2014 50.04C73.4894 50.056 73.8388 50.064 74.2494 50.064C75.6041 50.064 76.5881 49.8613 77.2014 49.456C77.8201 49.0507 78.1294 48.424 78.1294 47.576C78.1294 46.9627 78.0014 46.4747 77.7454 46.112C77.4948 45.7493 77.1054 45.488 76.5774 45.328C76.0494 45.168 75.3508 45.088 74.4814 45.088C74.0174 45.088 73.6121 45.1067 73.2654 45.144C72.9188 45.176 72.5561 45.2267 72.1774 45.296V49.96ZM89.2479 56.152C88.6773 56.152 88.1039 56.1067 87.5279 56.016C86.9519 55.9253 86.3999 55.7947 85.8719 55.624V54.472C86.4213 54.6533 86.9919 54.792 87.5839 54.888C88.1813 54.9787 88.7439 55.024 89.2719 55.024C91.4373 55.024 92.5199 54.2907 92.5199 52.824C92.5199 52.4187 92.4319 52.0853 92.2559 51.824C92.0799 51.5573 91.7999 51.3387 91.4159 51.168C91.0373 50.992 90.5199 50.84 89.8639 50.712L89.1439 50.576C87.9439 50.3413 87.0666 49.9627 86.5119 49.44C85.9573 48.912 85.6799 48.2107 85.6799 47.336C85.6799 46.6427 85.8533 46.048 86.1999 45.552C86.5466 45.056 87.0639 44.6747 87.7519 44.408C88.4453 44.1413 89.2986 44.008 90.3119 44.008C91.3946 44.008 92.4053 44.1467 93.3439 44.424V45.576C92.3839 45.2827 91.3759 45.136 90.3199 45.136C89.2159 45.136 88.3946 45.32 87.8559 45.688C87.3226 46.056 87.0559 46.5867 87.0559 47.28C87.0559 47.68 87.1333 48.0133 87.2879 48.28C87.4426 48.5467 87.6959 48.768 88.0479 48.944C88.3999 49.12 88.8773 49.2693 89.4799 49.392L90.1999 49.528C91.0799 49.6987 91.7893 49.928 92.3279 50.216C92.8719 50.504 93.2666 50.856 93.5119 51.272C93.7626 51.688 93.8879 52.184 93.8879 52.76C93.8879 53.4747 93.7066 54.088 93.3439 54.6C92.9813 55.1067 92.4506 55.4933 91.7519 55.76C91.0586 56.0213 90.2239 56.152 89.2479 56.152ZM95.9874 56V44.16H97.3554V49.32H104.563V44.16H105.931V56H104.563V50.528H97.3554V56H95.9874ZM113.894 56.152C112.753 56.152 111.761 55.9307 110.918 55.488C110.081 55.04 109.43 54.3627 108.966 53.456C108.508 52.5493 108.278 51.424 108.278 50.08C108.278 48.736 108.51 47.6107 108.974 46.704C109.444 45.7973 110.097 45.1227 110.934 44.68C111.777 44.232 112.764 44.008 113.894 44.008C115.036 44.008 116.025 44.232 116.862 44.68C117.705 45.1227 118.356 45.7973 118.814 46.704C119.278 47.6107 119.51 48.736 119.51 50.08C119.51 51.4187 119.276 52.544 118.806 53.456C118.342 54.3627 117.689 55.04 116.846 55.488C116.009 55.9307 115.025 56.152 113.894 56.152ZM113.894 55C115.217 55 116.249 54.6027 116.99 53.808C117.732 53.0133 118.102 51.784 118.102 50.12C118.102 48.424 117.732 47.1733 116.99 46.368C116.249 45.5627 115.217 45.16 113.894 45.16C112.577 45.16 111.545 45.5573 110.798 46.352C110.057 47.1467 109.686 48.376 109.686 50.04C109.686 51.7467 110.054 53 110.79 53.8C111.532 54.6 112.566 55 113.894 55ZM121.861 44.376C122.469 44.2587 123.045 44.1733 123.589 44.12C124.138 44.0613 124.717 44.032 125.325 44.032C127.026 44.032 128.306 44.36 129.165 45.016C130.029 45.6667 130.461 46.68 130.461 48.056C130.461 49.3947 130.024 50.408 129.149 51.096C128.28 51.7787 126.933 52.12 125.109 52.12C124.57 52.12 123.944 52.0907 123.229 52.032V56H121.861V44.376ZM125.117 51.064C126.066 51.064 126.834 50.9547 127.421 50.736C128.008 50.5173 128.434 50.1893 128.701 49.752C128.973 49.3093 129.109 48.7467 129.109 48.064C129.109 47.04 128.805 46.288 128.197 45.808C127.589 45.328 126.661 45.088 125.413 45.088C124.629 45.088 123.901 45.1493 123.229 45.272V50.944C123.837 51.024 124.466 51.064 125.117 51.064Z" fill="black"/>
</svg>
