<svg width="90" height="28" viewBox="0 0 90 28" fill="#F02525" xmlns="http://www.w3.org/2000/svg">
<path d="M7.5082 22.4918V16.9836H15.3115C18.3536 16.9836 20.8197 14.5175 20.8197 11.4754V11.0164C20.8197 7.97431 18.3536 5.5082 15.3115 5.5082H13.0164C9.97431 5.5082 7.5082 7.97431 7.5082 11.0164V16.9836H2V11.0164C2 4.9322 6.9322 0 13.0164 0H15.3115C21.3957 0 26.3279 4.9322 26.3279 11.0164V11.4754C26.3279 17.5596 21.3957 22.4918 15.3115 22.4918H7.5082Z" fill="#F02525"/>
<path d="M7.5082 22.4917V27.9999C4.46611 27.9999 2 25.5338 2 22.4917H7.5082Z" fill="#F02525"/>
<path d="M10.4922 13.9999V12.0491C10.4922 10.0844 12.0849 8.4917 14.0496 8.4917H14.8528C16.3739 8.4917 17.6069 9.72475 17.6069 11.2458C17.6069 12.7668 16.3739 13.9999 14.8528 13.9999H10.4922Z" fill="#F02525"/>
</svg>
