<svg width="264" height="146" viewBox="0 0 264 146" fill="none" xmlns="http://www.w3.org/2000/svg">
<path d="M87.4851 84.96C84.8451 84.96 82.9011 84.348 81.6531 83.124C80.4051 81.924 79.7811 80.556 79.7811 79.02C79.7811 77.868 80.1651 76.812 80.9331 75.852C81.7011 74.868 82.6851 74.376 83.8851 74.376C85.1091 74.376 86.1051 74.748 86.8731 75.492C87.6411 76.236 88.0251 77.1 88.0251 78.084C88.0251 79.068 87.7131 79.896 87.0891 80.568C86.4651 81.24 85.6851 81.576 84.7491 81.576C83.8371 81.576 83.0571 81.3 82.4091 80.748C81.7851 80.172 81.4731 79.392 81.4731 78.408C81.4731 77.304 81.9171 76.536 82.8051 76.104C83.0211 76.008 83.1291 75.888 83.1291 75.744C83.1291 75.504 82.9971 75.384 82.7331 75.384C82.5651 75.384 82.3251 75.504 82.0131 75.744C80.9811 76.56 80.4651 77.652 80.4651 79.02C80.4651 80.388 80.9811 81.516 82.0131 82.404C83.0211 83.316 84.1971 83.772 85.5411 83.772C86.8851 83.772 87.8331 83.304 88.3851 82.368C88.9371 81.432 89.2131 80.064 89.2131 78.264V56.376H86.5851V55.8H99.6171V56.376H96.5931V76.032C96.5931 78.744 95.8611 80.904 94.3971 82.512C92.9331 84.144 90.6291 84.96 87.4851 84.96ZM101.148 69.228C99.1557 69.228 97.7277 69.852 96.8637 71.1C96.7197 71.316 96.6477 71.496 96.6477 71.64C96.6477 71.856 96.7557 71.964 96.9717 71.964C97.1637 71.964 97.3437 71.784 97.5117 71.424C97.9197 70.848 98.4837 70.56 99.2037 70.56C99.9477 70.56 100.524 70.8 100.932 71.28C101.364 71.76 101.58 72.384 101.58 73.152C101.58 73.92 101.304 74.556 100.752 75.06C100.224 75.564 99.5277 75.816 98.6637 75.816C97.7997 75.816 97.0917 75.504 96.5397 74.88C95.9877 74.256 95.7117 73.452 95.7117 72.468C95.7117 71.484 96.1797 70.584 97.1157 69.768C98.0517 68.952 99.3837 68.544 101.112 68.544C102 68.544 102.876 68.676 103.74 68.94L107.412 58.356C107.748 57.348 108.12 56.652 108.528 56.268C109.176 55.692 110.052 55.404 111.156 55.404L119.904 80.1H121.272V80.676H112.344L111.552 78.48C109.56 73.848 107.1 70.956 104.172 69.804L101.976 76.032C101.736 76.68 101.616 77.292 101.616 77.868C101.616 79.356 102.696 80.1 104.856 80.1H106.044V80.676H96.8277V80.1C97.5477 80.1 98.1477 80.028 98.6277 79.884C99.1077 79.716 99.5157 79.404 99.8517 78.948C100.188 78.492 100.44 78.072 100.608 77.688C100.776 77.28 101.016 76.644 101.328 75.78L103.488 69.588C102.696 69.348 101.916 69.228 101.148 69.228ZM104.388 69.156C106.548 69.948 108.408 71.556 109.968 73.98L106.332 63.648L104.388 69.156ZM123.713 78.696C122.681 77.688 122.165 76.56 122.165 75.312C122.165 74.064 122.513 73.08 123.209 72.36C123.905 71.616 124.769 71.244 125.801 71.244C126.833 71.244 127.685 71.58 128.357 72.252C129.053 72.924 129.401 73.716 129.401 74.628C129.401 75.54 129.113 76.344 128.537 77.04C127.985 77.736 127.241 78.084 126.305 78.084C125.393 78.084 124.709 77.76 124.253 77.112C124.229 77.064 124.193 77.004 124.145 76.932C124.097 76.86 124.061 76.8 124.037 76.752C123.965 76.632 123.869 76.572 123.749 76.572C123.509 76.572 123.389 76.68 123.389 76.896C123.389 77.112 123.509 77.376 123.749 77.688C124.421 78.552 125.393 79.248 126.665 79.776C127.961 80.28 129.365 80.532 130.877 80.532C132.413 80.532 133.697 80.22 134.729 79.596C135.785 78.948 136.313 77.988 136.313 76.716C136.313 75.276 135.389 74.064 133.541 73.08C132.725 72.648 131.825 72.228 130.841 71.82C129.857 71.388 128.873 70.92 127.889 70.416C126.905 69.888 126.005 69.312 125.189 68.688C124.373 68.04 123.701 67.212 123.173 66.204C122.669 65.196 122.417 64.056 122.417 62.784C122.417 60.576 123.413 58.752 125.405 57.312C127.397 55.848 129.665 55.116 132.209 55.116C134.753 55.116 136.889 55.584 138.617 56.52C140.345 57.456 141.209 58.74 141.209 60.372C141.209 61.5 140.861 62.472 140.165 63.288C139.493 64.104 138.617 64.512 137.537 64.512C136.457 64.512 135.581 64.188 134.909 63.54C134.237 62.892 133.901 62.088 133.901 61.128C133.901 60.168 134.177 59.376 134.729 58.752C135.281 58.104 136.049 57.78 137.033 57.78C138.017 57.78 138.821 58.284 139.445 59.292C139.565 59.484 139.685 59.58 139.805 59.58C140.045 59.58 140.165 59.448 140.165 59.184C140.165 59.04 140.105 58.872 139.985 58.68C139.577 57.984 138.749 57.336 137.501 56.736C136.277 56.136 134.861 55.836 133.253 55.836C131.645 55.836 130.433 56.16 129.617 56.808C128.801 57.432 128.393 58.272 128.393 59.328C128.393 60.36 128.741 61.272 129.437 62.064C130.133 62.856 130.997 63.492 132.029 63.972C133.085 64.428 134.213 64.944 135.413 65.52C136.637 66.096 137.765 66.672 138.797 67.248C139.853 67.824 140.729 68.628 141.425 69.66C142.121 70.692 142.469 71.892 142.469 73.26C142.469 75.804 141.413 77.796 139.301 79.236C137.213 80.652 134.561 81.36 131.345 81.36C128.153 81.36 125.609 80.472 123.713 78.696ZM147.19 58.104V73.692C147.19 75.756 147.274 77.16 147.442 77.904C147.61 78.648 147.85 79.128 148.162 79.344C148.786 79.848 149.818 80.1 151.258 80.1H152.122V80.676H142.006V80.1H142.402C143.794 80.052 144.826 79.752 145.498 79.2C146.002 78.768 146.314 77.76 146.434 76.176C146.458 75.6 146.47 74.76 146.47 73.656V58.968C146.47 57.96 146.206 57.276 145.678 56.916C145.15 56.556 144.31 56.376 143.158 56.376V55.8H153.922L158.746 67.284L165.478 55.8H174.694V56.376H172.39V80.1H174.694V80.676H162.958V80.1H165.262V58.104H165.01L159.07 68.004L161.122 72.864C161.674 74.112 161.95 75.276 161.95 76.356C161.95 77.412 161.542 78.348 160.726 79.164C159.91 79.956 158.818 80.352 157.45 80.352C154.618 80.352 153.202 79.32 153.202 77.256C153.202 76.632 153.622 75.636 154.462 74.268L147.442 58.104H147.19ZM154.786 75.06C154.186 76.02 153.886 76.764 153.886 77.292C153.886 77.82 154.03 78.264 154.318 78.624C154.606 78.984 154.882 79.164 155.146 79.164C155.41 79.164 155.614 79.08 155.758 78.912C155.926 78.744 156.01 78.48 156.01 78.12C156.01 77.76 155.83 77.22 155.47 76.5L154.822 75.024L154.786 75.06ZM179.598 58.968C181.83 58.968 183.582 58.572 184.854 57.78C186.15 56.964 186.798 55.704 186.798 54C186.798 52.848 186.414 51.912 185.646 51.192C184.878 50.448 183.978 50.076 182.946 50.076C181.938 50.076 181.23 50.28 180.822 50.688C180.75 50.76 180.714 50.856 180.714 50.976C180.714 51.192 180.81 51.3 181.002 51.3C181.074 51.3 181.266 51.216 181.578 51.048C181.914 50.88 182.286 50.796 182.694 50.796C183.558 50.796 184.29 51.084 184.89 51.66C185.514 52.236 185.826 53.04 185.826 54.072C185.826 55.08 185.466 55.908 184.746 56.556C184.026 57.18 183.102 57.492 181.974 57.492C180.87 57.492 179.97 57.108 179.274 56.34C178.602 55.572 178.266 54.66 178.266 53.604C178.266 52.548 178.662 51.588 179.454 50.724C180.27 49.836 181.362 49.392 182.73 49.392C184.122 49.392 185.262 49.824 186.15 50.688C187.038 51.528 187.482 52.632 187.482 54C187.482 55.368 187.086 56.508 186.294 57.42V80.1H189.39V80.676H176.286V80.1H178.95V59.688C178.206 59.688 177.438 59.616 176.646 59.472V58.788C177.486 58.908 178.47 58.968 179.598 58.968ZM194.163 62.82V76.716C194.163 77.868 193.803 78.876 193.083 79.74C192.387 80.58 191.427 81 190.203 81C189.003 81 188.019 80.628 187.251 79.884C186.459 79.14 186.063 78.276 186.063 77.292C186.063 76.308 186.375 75.48 186.999 74.808C187.623 74.136 188.403 73.8 189.339 73.8C190.251 73.8 191.019 74.088 191.643 74.664C192.291 75.216 192.615 75.96 192.615 76.896C192.615 77.424 192.519 77.88 192.327 78.264C192.159 78.648 191.979 78.9 191.787 79.02C191.499 79.188 191.331 79.296 191.283 79.344C191.091 79.44 190.995 79.548 190.995 79.668C190.995 79.908 191.103 80.028 191.319 80.028C191.415 80.028 191.559 79.98 191.751 79.884C192.879 79.332 193.443 78.3 193.443 76.788V62.676C193.443 61.332 193.191 60.096 192.687 58.968C192.447 58.512 192.135 58.056 191.751 57.6C191.103 56.784 190.383 56.376 189.591 56.376V55.8H196.971C197.955 55.8 198.759 55.968 199.383 56.304C200.031 56.616 200.703 57.324 201.399 58.428L210.507 73.08H210.651V64.224C210.651 60.576 210.339 58.368 209.715 57.6C209.019 56.784 207.975 56.376 206.583 56.376H205.395V55.8H215.871V56.376H215.439C214.071 56.424 213.135 56.784 212.631 57.456C212.343 57.816 212.103 58.188 211.911 58.572C211.743 58.932 211.623 59.46 211.551 60.156C211.431 61.308 211.371 62.676 211.371 64.26V80.676H209.247C208.263 80.676 207.447 80.52 206.799 80.208C206.175 79.872 205.515 79.152 204.819 78.048L194.019 61.056C194.115 61.512 194.163 62.1 194.163 62.82ZM96.4974 94.28H89.6734V98.464H95.6734V99.584H89.6734V105H88.3054V93.16H96.4974V94.28ZM98.5001 105V93.16H99.8681V103.864H106.508V105H98.5001ZM112.704 105.152C111.562 105.152 110.57 104.931 109.728 104.488C108.89 104.04 108.24 103.363 107.776 102.456C107.317 101.549 107.088 100.424 107.088 99.08C107.088 97.736 107.32 96.6107 107.784 95.704C108.253 94.7973 108.906 94.1227 109.744 93.68C110.586 93.232 111.573 93.008 112.704 93.008C113.845 93.008 114.834 93.232 115.672 93.68C116.514 94.1227 117.165 94.7973 117.624 95.704C118.088 96.6107 118.32 97.736 118.32 99.08C118.32 100.419 118.085 101.544 117.616 102.456C117.152 103.363 116.498 104.04 115.656 104.488C114.818 104.931 113.834 105.152 112.704 105.152ZM112.704 104C114.026 104 115.058 103.603 115.8 102.808C116.541 102.013 116.912 100.784 116.912 99.12C116.912 97.424 116.541 96.1733 115.8 95.368C115.058 94.5627 114.026 94.16 112.704 94.16C111.386 94.16 110.354 94.5573 109.608 95.352C108.866 96.1467 108.496 97.376 108.496 99.04C108.496 100.747 108.864 102 109.6 102.8C110.341 103.6 111.376 104 112.704 104ZM136.077 93.16H137.413L133.613 105H131.837L128.405 94.512L124.965 105H123.189L119.373 93.16H120.789L124.149 103.8L127.621 93.16H129.229L132.685 103.848L136.077 93.16ZM140.678 103.896H147.654V105H139.318V93.16H147.574V94.264H140.678V98.376H146.758V99.472H140.678V103.896ZM157.761 105L153.769 100.112C153.647 100.117 153.457 100.12 153.201 100.12C152.647 100.12 151.972 100.088 151.177 100.024V105H149.825V93.416C151.047 93.16 152.239 93.032 153.401 93.032C154.548 93.032 155.489 93.1547 156.225 93.4C156.961 93.64 157.511 94.0187 157.873 94.536C158.241 95.0533 158.425 95.7253 158.425 96.552C158.425 97.48 158.153 98.2293 157.609 98.8C157.065 99.3653 156.26 99.7493 155.193 99.952L159.329 105H157.761ZM151.177 98.96C151.577 98.9973 151.919 99.024 152.201 99.04C152.489 99.056 152.839 99.064 153.249 99.064C154.604 99.064 155.588 98.8613 156.201 98.456C156.82 98.0507 157.129 97.424 157.129 96.576C157.129 95.9627 157.001 95.4747 156.745 95.112C156.495 94.7493 156.105 94.488 155.577 94.328C155.049 94.168 154.351 94.088 153.481 94.088C153.017 94.088 152.612 94.1067 152.265 94.144C151.919 94.176 151.556 94.2267 151.177 94.296V98.96ZM168.248 105.152C167.677 105.152 167.104 105.107 166.528 105.016C165.952 104.925 165.4 104.795 164.872 104.624V103.472C165.421 103.653 165.992 103.792 166.584 103.888C167.181 103.979 167.744 104.024 168.272 104.024C170.437 104.024 171.52 103.291 171.52 101.824C171.52 101.419 171.432 101.085 171.256 100.824C171.08 100.557 170.8 100.339 170.416 100.168C170.037 99.992 169.52 99.84 168.864 99.712L168.144 99.576C166.944 99.3413 166.067 98.9627 165.512 98.44C164.957 97.912 164.68 97.2107 164.68 96.336C164.68 95.6427 164.853 95.048 165.2 94.552C165.547 94.056 166.064 93.6747 166.752 93.408C167.445 93.1413 168.299 93.008 169.312 93.008C170.395 93.008 171.405 93.1467 172.344 93.424V94.576C171.384 94.2827 170.376 94.136 169.32 94.136C168.216 94.136 167.395 94.32 166.856 94.688C166.323 95.056 166.056 95.5867 166.056 96.28C166.056 96.68 166.133 97.0133 166.288 97.28C166.443 97.5467 166.696 97.768 167.048 97.944C167.4 98.12 167.877 98.2693 168.48 98.392L169.2 98.528C170.08 98.6987 170.789 98.928 171.328 99.216C171.872 99.504 172.267 99.856 172.512 100.272C172.763 100.688 172.888 101.184 172.888 101.76C172.888 102.475 172.707 103.088 172.344 103.6C171.981 104.107 171.451 104.493 170.752 104.76C170.059 105.021 169.224 105.152 168.248 105.152ZM174.987 105V93.16H176.355V98.32H183.563V93.16H184.931V105H183.563V99.528H176.355V105H174.987ZM192.894 105.152C191.753 105.152 190.761 104.931 189.918 104.488C189.081 104.04 188.43 103.363 187.966 102.456C187.508 101.549 187.278 100.424 187.278 99.08C187.278 97.736 187.51 96.6107 187.974 95.704C188.444 94.7973 189.097 94.1227 189.934 93.68C190.777 93.232 191.764 93.008 192.894 93.008C194.036 93.008 195.025 93.232 195.862 93.68C196.705 94.1227 197.356 94.7973 197.814 95.704C198.278 96.6107 198.51 97.736 198.51 99.08C198.51 100.419 198.276 101.544 197.806 102.456C197.342 103.363 196.689 104.04 195.846 104.488C195.009 104.931 194.025 105.152 192.894 105.152ZM192.894 104C194.217 104 195.249 103.603 195.99 102.808C196.732 102.013 197.102 100.784 197.102 99.12C197.102 97.424 196.732 96.1733 195.99 95.368C195.249 94.5627 194.217 94.16 192.894 94.16C191.577 94.16 190.545 94.5573 189.798 95.352C189.057 96.1467 188.686 97.376 188.686 99.04C188.686 100.747 189.054 102 189.79 102.8C190.532 103.6 191.566 104 192.894 104ZM200.861 93.376C201.469 93.2587 202.045 93.1733 202.589 93.12C203.138 93.0613 203.717 93.032 204.325 93.032C206.026 93.032 207.306 93.36 208.165 94.016C209.029 94.6667 209.461 95.68 209.461 97.056C209.461 98.3947 209.024 99.408 208.149 100.096C207.28 100.779 205.933 101.12 204.109 101.12C203.57 101.12 202.944 101.091 202.229 101.032V105H200.861V93.376ZM204.117 100.064C205.066 100.064 205.834 99.9547 206.421 99.736C207.008 99.5173 207.434 99.1893 207.701 98.752C207.973 98.3093 208.109 97.7467 208.109 97.064C208.109 96.04 207.805 95.288 207.197 94.808C206.589 94.328 205.661 94.088 204.413 94.088C203.629 94.088 202.901 94.1493 202.229 94.272V99.944C202.837 100.024 203.466 100.064 204.117 100.064Z" fill="#FCFCFE"/>
</svg>
