<svg width="124" height="124" viewBox="0 0 124 124" fill="none" xmlns="http://www.w3.org/2000/svg">
<path d="M71.4558 98.1649C70.6839 98.1675 69.9212 97.9971 69.2238 97.6663C68.5265 97.3355 67.912 96.8526 67.4258 96.2532L42.4708 65.2532C41.7108 64.3287 41.2954 63.1691 41.2954 61.9724C41.2954 60.7757 41.7108 59.616 42.4708 58.6915L68.3041 27.6915C69.1811 26.6364 70.4413 25.9729 71.8075 25.8469C73.1737 25.721 74.534 26.1429 75.5891 27.0199C76.6442 27.8969 77.3077 29.1571 77.4337 30.5233C77.5597 31.8895 77.1377 33.2498 76.2608 34.3049L53.1658 61.9982L75.4858 89.6916C76.1176 90.4499 76.5189 91.3734 76.6423 92.3528C76.7656 93.3321 76.6059 94.3263 76.182 95.2177C75.758 96.1091 75.0876 96.8604 74.25 97.3827C73.4124 97.905 72.4428 98.1764 71.4558 98.1649Z" fill="#231F20"/>
</svg>
