<svg width="124" height="124" viewBox="0 0 124 124" fill="none" xmlns="http://www.w3.org/2000/svg">
<path d="M51.6667 98.1658C50.4595 98.1682 49.2896 97.7477 48.3601 96.9775C47.8369 96.5437 47.4044 96.011 47.0874 95.4099C46.7705 94.8088 46.5752 94.151 46.5128 93.4743C46.4504 92.7976 46.5221 92.1152 46.7238 91.4663C46.9256 90.8173 47.2533 90.2145 47.6884 89.6925L70.8351 61.9991L48.5151 34.2541C48.0859 33.7256 47.7654 33.1175 47.572 32.4648C47.3786 31.812 47.3161 31.1275 47.3881 30.4505C47.4601 29.7735 47.6653 29.1175 47.9916 28.52C48.318 27.9225 48.7593 27.3955 49.2901 26.9691C49.8246 26.4988 50.4507 26.144 51.1288 25.927C51.807 25.7101 52.5227 25.6357 53.2311 25.7085C53.9394 25.7812 54.625 25.9996 55.2449 26.3499C55.8648 26.7002 56.4056 27.1749 56.8334 27.7441L81.7884 58.7441C82.5483 59.6686 82.9637 60.8282 82.9637 62.025C82.9637 63.2217 82.5483 64.3813 81.7884 65.3058L55.9551 96.3058C55.4368 96.931 54.7783 97.4253 54.0333 97.7485C53.2882 98.0716 52.4774 98.2146 51.6667 98.1658Z" fill="#231F20"/>
</svg>
