<svg xmlns="http://www.w3.org/2000/svg" xmlns:xlink="http://www.w3.org/1999/xlink" version="1.1" x="0px" y="0px" viewBox="0 0 100 125" style="enable-background:new 0 0 100 100;" xml:space="preserve"><g><path d="M44.26,55.76c-0.36-0.47-1.03-0.55-1.49-0.2c-5.41,4.16-11.99,0.13-12.29-0.06c-0.5-0.31-1.16-0.17-1.47,0.33   c-0.31,0.5-0.17,1.16,0.33,1.47c0.22,0.14,3.65,2.26,7.86,2.26c2.19,0,4.6-0.58,6.86-2.32C44.53,56.9,44.62,56.23,44.26,55.76z"/><path d="M75.25,55.85c-0.31-0.5-0.97-0.65-1.47-0.33c-0.28,0.17-6.87,4.22-12.29,0.06c-0.47-0.36-1.14-0.27-1.49,0.2   c-0.36,0.47-0.27,1.14,0.2,1.49c2.27,1.74,4.67,2.32,6.86,2.32c4.21,0,7.64-2.13,7.86-2.26C75.41,57,75.56,56.34,75.25,55.85z"/><path d="M23.19,84.46c-1.67-0.16-1.81-3.01-1.81-3.04c-0.01-0.29-0.25-0.51-0.53-0.51h0c-0.29,0-0.52,0.23-0.53,0.51   c0,0.03-0.16,2.88-1.81,3.04c-0.27,0.03-0.48,0.26-0.48,0.53s0.21,0.5,0.48,0.53c1.38,0.13,1.78,2.97,1.81,3.96   c0.01,0.29,0.24,0.52,0.53,0.52s0.52-0.23,0.53-0.52c0.03-0.99,0.43-3.83,1.81-3.96c0.27-0.03,0.48-0.26,0.48-0.53   S23.46,84.49,23.19,84.46z M20.85,86.63c-0.22-0.6-0.54-1.18-0.98-1.59c0.44-0.34,0.76-0.81,0.98-1.3c0.22,0.49,0.54,0.96,0.98,1.3   C21.38,85.44,21.07,86.02,20.85,86.63z"/><path d="M13.84,74.3c-1.85-0.17-2-3.3-2-3.33c-0.01-0.29-0.25-0.51-0.53-0.51c-0.29,0-0.52,0.22-0.53,0.51c0,0.03-0.15,3.15-2,3.33   c-0.27,0.03-0.48,0.26-0.48,0.53s0.21,0.5,0.48,0.53c1.53,0.14,1.96,3.17,2,4.33c0.01,0.29,0.24,0.52,0.53,0.52c0,0,0,0,0,0   c0.29,0,0.52-0.23,0.53-0.52c0.03-1.08,0.47-4.18,2-4.32c0.27-0.03,0.48-0.26,0.48-0.53S14.11,74.32,13.84,74.3z M11.31,76.72   c-0.25-0.71-0.6-1.39-1.13-1.85c0.52-0.38,0.88-0.94,1.13-1.51c0.25,0.57,0.6,1.13,1.13,1.51C11.91,75.33,11.55,76.01,11.31,76.72z   "/><path d="M90.99,34.29c-2.56-0.24-2.78-4.58-2.79-4.66c-0.02-0.43-0.37-0.77-0.8-0.77c-0.43,0-0.78,0.34-0.8,0.77   c0,0.04-0.24,4.42-2.79,4.66c-0.41,0.04-0.72,0.38-0.72,0.8c0,0.41,0.31,0.76,0.72,0.8c2.12,0.2,2.74,4.56,2.79,6.07   c0.01,0.43,0.37,0.77,0.8,0.77h0c0.43,0,0.78-0.34,0.8-0.77c0.05-1.51,0.66-5.87,2.79-6.07c0.41-0.04,0.72-0.38,0.72-0.8   C91.71,34.67,91.4,34.33,90.99,34.29z M87.4,37.63c-0.34-0.94-0.83-1.85-1.52-2.48c0.69-0.52,1.18-1.26,1.52-2.02   c0.34,0.76,0.83,1.5,1.52,2.02C88.23,35.78,87.74,36.69,87.4,37.63z"/><path d="M52.13,95.18c-5.03,0-9.94-1.77-13.85-5.01c-5.15-3.88-9.26-9.95-12.23-18.04l-1.89-6.41C24,65.15,23.4,64.83,22.84,65   c-0.56,0.17-0.89,0.76-0.72,1.32l1.9,6.45c0.01,0.02,0.01,0.04,0.02,0.06c0.06,0.15,0.11,0.3,0.17,0.45   c-3.83-0.14-7.12-3.84-8.94-7.31c-2.35-4.49-2.83-9.3-1.17-11.71c0.64-0.92,1.59-1.49,2.84-1.7c0.02,0,0.04,0.01,0.06,0.01   c0.1,0,0.21-0.02,0.31-0.05c0.6-0.06,1.26-0.06,1.98,0.03c0.14,0.02,0.28,0.01,0.42-0.03c1.22-0.34,23.88-6.83,36.94-20.88   c2.15,4.7,9.4,18.11,23.42,21.62l2.24-1.69c-15.16-2.71-22.69-18.44-24.1-21.7c3.01-3.62,5.36-7.69,6.59-12.25   c0.15-0.57-0.18-1.15-0.75-1.3c-0.57-0.15-1.15,0.19-1.3,0.75c-5.85,21.8-40.48,32.47-43.41,33.34c-0.61-0.06-1.17-0.07-1.69-0.05   c-1.23-2.7-1.79-5.92-1.63-9.6c0.49-11.45,5.22-21.52,12.97-27.61c6.45-5.07,15.39-8.19,23.92-8.33c0.59-0.01,1.06-0.49,1.05-1.08   c-0.01-0.58-0.48-1.05-1.06-1.05c-0.01,0-0.01,0-0.02,0c-9.11,0.15-18.29,3.36-25.2,8.79c-8.24,6.48-13.26,17.12-13.78,29.2   c-0.16,3.79,0.37,7.17,1.59,10.07c-1.54,0.51-2.52,1.44-3.12,2.31c-2.46,3.56-1.25,9.55,1.04,13.91c2.78,5.3,6.91,8.46,11.05,8.46   c0.2,0,0.39-0.06,0.56-0.16c3.02,7.29,7.05,12.87,11.97,16.58c4.25,3.53,9.64,5.47,15.17,5.47c3.51,0,6.98-0.78,10.13-2.27   l0.4-2.59c-0.01,0.01-0.03,0.01-0.04,0.02C59.43,94.24,55.8,95.18,52.13,95.18z"/><path d="M31.58,76.22c-0.19-0.4-0.67-0.56-1.07-0.37c-0.4,0.19-0.56,0.67-0.37,1.07c2.72,5.65,6.03,8.93,7.56,9.97   c0.14,0.09,0.29,0.14,0.45,0.14c0.25,0,0.51-0.12,0.66-0.35c0.25-0.36,0.16-0.86-0.21-1.11C38.45,85.46,34.8,82.92,31.58,76.22z"/><path d="M40,88.77c0,0.53,0.43,0.96,0.96,0.96s0.96-0.43,0.96-0.96c0-0.53-0.43-0.96-0.96-0.96S40,88.24,40,88.77z"/><path d="M84.1,76.88c-3.84-0.36-4.18-6.87-4.18-6.99c-0.03-0.64-0.55-1.15-1.2-1.15c-0.64,0-1.17,0.51-1.2,1.15   c0,0.07-0.37,6.63-4.18,6.99c-0.62,0.06-1.09,0.57-1.09,1.19s0.47,1.14,1.09,1.19c3.19,0.3,4.11,6.84,4.18,9.11   c0.02,0.65,0.55,1.16,1.2,1.16h0c0.65,0,1.18-0.51,1.2-1.16c0.07-2.27,0.99-8.81,4.18-9.11c0.62-0.06,1.09-0.57,1.09-1.19   S84.71,76.94,84.1,76.88z M78.72,81.89c-0.51-1.41-1.24-2.77-2.28-3.72c1.04-0.78,1.77-1.89,2.28-3.03   c0.51,1.15,1.24,2.25,2.28,3.03C79.96,79.12,79.23,80.48,78.72,81.89z"/></g><text x="0" y="115" fill="#000000" font-size="5px" font-weight="bold" font-family="'Helvetica Neue', Helvetica, Arial-Unicode, Arial, Sans-serif">Created by leesubin</text><text x="0" y="120" fill="#000000" font-size="5px" font-weight="bold" font-family="'Helvetica Neue', Helvetica, Arial-Unicode, Arial, Sans-serif">from the Noun Project</text></svg>