<svg width="30" height="30" viewBox="0 0 30 30" fill="none" xmlns="http://www.w3.org/2000/svg">
<path d="M23.775 6.21879C22.0387 4.48328 19.8268 3.30161 17.419 2.82319C15.0111 2.34478 12.5155 2.59111 10.2476 3.53103C7.97975 4.47096 6.04153 6.06226 4.67805 8.10372C3.31457 10.1452 2.58706 12.5451 2.58752 15C2.58752 18.2926 3.89507 21.4504 6.22268 23.7792C8.5503 26.108 11.7075 27.4171 15 27.4188C16.6293 27.4188 18.2429 27.1004 19.75 26.4813C21.252 25.8469 22.6183 24.9304 23.775 23.7813C24.9283 22.6282 25.8432 21.2592 26.4673 19.7525C27.0915 18.2458 27.4128 16.6309 27.4128 15C27.4128 13.3692 27.0915 11.7543 26.4673 10.2476C25.8432 8.74087 24.9283 7.37188 23.775 6.21879ZM22.9 22.8938C21.1127 24.689 18.7673 25.822 16.25 26.1063V17.9063H18.6C18.9315 17.9063 19.2495 17.7746 19.4839 17.5402C19.7183 17.3057 19.85 16.9878 19.85 16.6563C19.85 16.3248 19.7183 16.0068 19.4839 15.7724C19.2495 15.538 18.9315 15.4063 18.6 15.4063H16.25V11.9813C16.25 11.6498 16.3817 11.3318 16.6161 11.0974C16.8506 10.863 17.1685 10.7313 17.5 10.7313H19C19.3315 10.7313 19.6495 10.5996 19.8839 10.3652C20.1183 10.1307 20.25 9.81281 20.25 9.48129C20.25 9.14977 20.1183 8.83182 19.8839 8.5974C19.6495 8.36298 19.3315 8.23129 19 8.23129H16.875C16.0462 8.23129 15.2514 8.56053 14.6653 9.14658C14.0793 9.73263 13.75 10.5275 13.75 11.3563V15.4063H11.4125C11.081 15.4063 10.7631 15.538 10.5286 15.7724C10.2942 16.0068 10.1625 16.3248 10.1625 16.6563C10.1625 16.9878 10.2942 17.3057 10.5286 17.5402C10.7631 17.7746 11.081 17.9063 11.4125 17.9063H13.75V26.1063C11.4286 25.8414 9.24912 24.854 7.51934 23.2834C5.78955 21.7128 4.59692 19.6384 4.1099 17.3533C3.62288 15.0681 3.8661 12.6878 4.80519 10.5484C5.74428 8.40894 7.33178 6.61864 9.34346 5.43031C11.3551 4.24199 13.6893 3.71571 16.0163 3.92581C18.3433 4.13591 20.5454 5.07178 22.3117 6.60122C24.078 8.13065 25.3192 10.1764 25.8599 12.4494C26.4006 14.7224 26.2135 17.1079 25.325 19.2688C24.7581 20.6222 23.9346 21.8532 22.9 22.8938Z" fill="white"/>
</svg>
